<svg xmlns="http://www.w3.org/2000/svg" viewBox="0 0 420 658" width="420" height="658" font-family="'Hiragino Sans','Noto Sans CJK JP','Noto Sans JP',sans-serif">
<rect width="420" height="658" rx="18" fill="#F7F3EC"/>
<text x="20" y="42" font-size="21" font-weight="800" fill="#241F1A" font-family="'Hiragino Mincho ProN','Noto Serif CJK JP','Noto Serif JP',serif">忘年会の鉄板メニュー</text>
<text x="20" y="64" font-size="12" fill="#6B6258">#490で注文したもの（推しグルメ巡礼MAPのデータより）</text>
<rect x="20" y="82" width="180" height="50" rx="12" fill="#e8537a"/><text x="110" y="104" font-size="15" font-weight="800" fill="#fff" text-anchor="middle">#490 忘年会</text><text x="110" y="123" font-size="12.5" fill="#fff" text-anchor="middle">2026年1月4日公開</text>
<path d="M206 107 h10" stroke="#e8537a" stroke-width="3"/><path d="M214 101 l8 6 l-8 6" fill="none" stroke="#e8537a" stroke-width="3"/>
<rect x="226" y="82" width="174" height="50" rx="12" fill="#fff" stroke="#e8537a" stroke-width="2"/><text x="313" y="104" font-size="15" font-weight="800" fill="#e8537a" text-anchor="middle">#491 後編</text><text x="313" y="123" font-size="12.5" fill="#6B6258" text-anchor="middle">2026年1月7日公開</text>
<rect x="20" y="150" width="380" height="118" rx="14" fill="#fff" stroke="#E2D9CC"/>
<rect x="20" y="150" width="8" height="118" rx="4" fill="#ca8a04"/>
<text x="42" y="177" font-size="16" font-weight="800" fill="#ca8a04">もんじゃ</text>
<circle cx="50" cy="200" r="4" fill="#ca8a04"/><text x="62" y="205" font-size="14.5" fill="#241F1A">浅草のりもんじゃ（＋紅生姜）</text>
<circle cx="50" cy="226" r="4" fill="#ca8a04"/><text x="62" y="231" font-size="14.5" fill="#241F1A">明太スペシャルもんじゃ</text>
<circle cx="50" cy="252" r="4" fill="#ca8a04"/><text x="62" y="257" font-size="14.5" fill="#241F1A">もんじゃは合計4種</text>
<rect x="20" y="280" width="380" height="92" rx="14" fill="#fff" stroke="#E2D9CC"/>
<rect x="20" y="280" width="8" height="92" rx="4" fill="#9a3412"/>
<text x="42" y="307" font-size="16" font-weight="800" fill="#9a3412">鉄板の粉もの・麺</text>
<circle cx="50" cy="330" r="4" fill="#9a3412"/><text x="62" y="335" font-size="14.5" fill="#241F1A">お好み焼き（＋豚肉増し）</text>
<circle cx="50" cy="356" r="4" fill="#9a3412"/><text x="62" y="361" font-size="14.5" fill="#241F1A">焼きそば</text>
<rect x="20" y="384" width="380" height="118" rx="14" fill="#fff" stroke="#E2D9CC"/>
<rect x="20" y="384" width="8" height="118" rx="4" fill="#15803d"/>
<text x="42" y="411" font-size="16" font-weight="800" fill="#15803d">バター焼き</text>
<circle cx="50" cy="434" r="4" fill="#15803d"/><text x="62" y="439" font-size="14.5" fill="#241F1A">コーンバター</text>
<circle cx="50" cy="460" r="4" fill="#15803d"/><text x="62" y="465" font-size="14.5" fill="#241F1A">いかげそバター</text>
<circle cx="50" cy="486" r="4" fill="#15803d"/><text x="62" y="491" font-size="14.5" fill="#241F1A">ジャガバター</text>
<rect x="20" y="514" width="380" height="92" rx="14" fill="#fff" stroke="#E2D9CC"/>
<rect x="20" y="514" width="8" height="92" rx="4" fill="#0891b2"/>
<text x="42" y="541" font-size="16" font-weight="800" fill="#0891b2">飲みもの</text>
<circle cx="50" cy="564" r="4" fill="#0891b2"/><text x="62" y="569" font-size="14.5" fill="#241F1A">ウーロン茶</text>
<circle cx="50" cy="590" r="4" fill="#0891b2"/><text x="62" y="595" font-size="14.5" fill="#241F1A">ラムネ</text>
<text x="20" y="640" font-size="12" fill="#6B6258">3人で鉄板を囲んだ2025年の忘年会</text>
</svg>