<svg xmlns="http://www.w3.org/2000/svg" viewBox="0 0 600 626" width="600" height="626" role="img" aria-label="京セラドーム大阪と最寄り駅の位置関係" font-family="'Hiragino Sans','Hiragino Kaku Gothic ProN','Noto Sans JP','Yu Gothic','Meiryo',sans-serif"><title>京セラドーム大阪と最寄り駅の位置関係</title><rect width="600" height="626" rx="24" fill="#F7F2EA"/><text x="30" y="58" font-size="30" fill="#241F1A" font-weight="700" text-anchor="start">京セラドーム大阪と最寄り駅</text><text x="30" y="92" font-size="20" fill="#6B6258" font-weight="400" text-anchor="start">北が上。位置関係のイメージです</text><path d="M560 30 L572 60 L560 53 L548 60 Z" fill="#241F1A"/><text x="560" y="80" font-size="16" fill="#241F1A" font-weight="700" text-anchor="middle">N</text><path d="M498 98 L530 98" stroke="#241F1A" stroke-width="3"/><text x="514.1376848951961" y="90" font-size="15" fill="#6B6258" font-weight="400" text-anchor="middle">100m</text><rect x="20" y="118" width="560" height="412" rx="18" fill="#FFFFFF" stroke="#E2D9CC"/><ellipse cx="309" cy="335" rx="38" ry="34" fill="#EEF2F7" stroke="#9AA8BA" stroke-width="3"/><ellipse cx="309" cy="335" rx="26" ry="24" fill="none" stroke="#C8D2DE" stroke-width="1.5"/><ellipse cx="309" cy="335" rx="14" ry="13" fill="none" stroke="#C8D2DE" stroke-width="1.5"/><rect x="237" y="375" width="144" height="32" rx="16" fill="#fff" stroke="#9AA8BA"/><text x="309.14011976022664" y="397.28246817512786" font-size="15" fill="#241F1A" font-weight="700" text-anchor="middle">京セラドーム大阪</text><line x1="228" y1="188" x2="220" y2="187.99999999999997" stroke="#7A4FB5" stroke-width="2.5" stroke-dasharray="6 5"/><rect x="30" y="155.99999999999997" width="190" height="64" rx="12" fill="#fff" stroke="#7A4FB5" stroke-width="2.5"/><text x="40" y="182.99999999999997" font-size="17" fill="#7A4FB5" font-weight="700" text-anchor="start">地下鉄中央線 九条駅</text><text x="40" y="207.99999999999997" font-size="16" fill="#6B6258" font-weight="400" text-anchor="start">徒歩約9分</text><line x1="262" y1="299" x2="220" y2="298.5730261326347" stroke="#2E8B57" stroke-width="2.5" stroke-dasharray="6 5"/><rect x="30" y="266.5730261326347" width="190" height="64" rx="12" fill="#fff" stroke="#2E8B57" stroke-width="2.5"/><text x="40" y="293.5730261326347" font-size="19" fill="#2E8B57" font-weight="700" text-anchor="start">阪神 ドーム前駅</text><text x="40" y="318.5730261326347" font-size="16" fill="#6B6258" font-weight="400" text-anchor="start">1・2出口・徒歩すぐ</text><circle cx="228" cy="188" r="11" fill="#7A4FB5" stroke="#fff" stroke-width="4"/><circle cx="262" cy="299" r="11" fill="#2E8B57" stroke="#fff" stroke-width="4"/><line x1="372" y1="284" x2="380" y2="284.1351469241632" stroke="#2F6FB5" stroke-width="2.5" stroke-dasharray="6 5"/><rect x="380" y="252.13514692416322" width="190" height="64" rx="12" fill="#fff" stroke="#2F6FB5" stroke-width="2.5"/><text x="390" y="279.1351469241632" font-size="14" fill="#2F6FB5" font-weight="700" text-anchor="start">地下鉄 ドーム前千代崎駅</text><text x="390" y="304.1351469241632" font-size="16" fill="#6B6258" font-weight="400" text-anchor="start">1番出口・徒歩すぐ</text><line x1="358" y1="461" x2="380" y2="460.91113137820344" stroke="#D9822B" stroke-width="2.5" stroke-dasharray="6 5"/><rect x="380" y="428.91113137820344" width="190" height="64" rx="12" fill="#fff" stroke="#D9822B" stroke-width="2.5"/><text x="390" y="455.91113137820344" font-size="19" fill="#D9822B" font-weight="700" text-anchor="start">JR 大正駅</text><text x="390" y="480.91113137820344" font-size="16" fill="#6B6258" font-weight="400" text-anchor="start">徒歩約7分</text><circle cx="372" cy="284" r="11" fill="#2F6FB5" stroke="#fff" stroke-width="4"/><circle cx="358" cy="461" r="11" fill="#D9822B" stroke="#fff" stroke-width="4"/><rect x="20" y="542" width="560" height="70" rx="12" fill="#FBE6DD"/><text x="36" y="568" font-size="19" fill="#C2532F" font-weight="700" text-anchor="start">入場ゲートは3F。2Fモールからは入れない</text><text x="36" y="596" font-size="19" fill="#C2532F" font-weight="700" text-anchor="start">東口付近のエレベーターで3Fへ上がれる</text></svg>