<svg xmlns="http://www.w3.org/2000/svg" viewBox="0 0 420 686" width="420" height="686" font-family="'Hiragino Sans','Noto Sans CJK JP','Noto Sans JP',sans-serif">
<rect width="420" height="686" rx="18" fill="#F7F3EC"/>
<text x="20" y="42" font-size="21" font-weight="800" fill="#241F1A" font-family="'Hiragino Mincho ProN','Noto Serif CJK JP','Noto Serif JP',serif">お店のジャンルと場所</text>
<text x="20" y="64" font-size="12" fill="#6B6258">この記事のお店39軒を数えました</text>
<text x="20" y="118" font-size="15" font-weight="700" fill="#241F1A">食事</text>
<rect x="100" y="100" width="220" height="26" rx="8" fill="#2563eb"/>
<text x="328" y="119" font-size="16" font-weight="800" fill="#2563eb">22軒</text>
<text x="20" y="162" font-size="15" font-weight="700" fill="#241F1A">カフェ</text>
<rect x="100" y="144" width="60" height="26" rx="8" fill="#0891b2"/>
<text x="168" y="163" font-size="16" font-weight="800" fill="#0891b2">6軒</text>
<text x="20" y="206" font-size="15" font-weight="700" fill="#241F1A">居酒屋</text>
<rect x="100" y="188" width="40" height="26" rx="8" fill="#7c3aed"/>
<text x="148" y="207" font-size="16" font-weight="800" fill="#7c3aed">4軒</text>
<text x="20" y="250" font-size="15" font-weight="700" fill="#241F1A">スイーツ</text>
<rect x="100" y="232" width="20" height="26" rx="8" fill="#db2777"/>
<text x="128" y="251" font-size="16" font-weight="800" fill="#db2777">2軒</text>
<text x="20" y="294" font-size="15" font-weight="700" fill="#241F1A">中華</text>
<rect x="100" y="276" width="20" height="26" rx="8" fill="#dc2626"/>
<text x="128" y="295" font-size="16" font-weight="800" fill="#dc2626">2軒</text>
<text x="20" y="338" font-size="15" font-weight="700" fill="#241F1A">焼肉</text>
<rect x="100" y="320" width="20" height="26" rx="8" fill="#9a3412"/>
<text x="128" y="339" font-size="16" font-weight="800" fill="#9a3412">2軒</text>
<text x="20" y="382" font-size="15" font-weight="700" fill="#241F1A">和食</text>
<rect x="100" y="364" width="10" height="26" rx="8" fill="#15803d"/>
<text x="118" y="383" font-size="16" font-weight="800" fill="#15803d">1軒</text>
<text x="20" y="418" font-size="14" font-weight="700" fill="#6B6258">お店の場所</text>
<rect x="20" y="432" width="184" height="26" rx="13" fill="#fff" stroke="#E2D9CC"/>
<text x="32" y="450" font-size="13.5" fill="#241F1A">渋谷区</text><text x="192" y="450" font-size="14" font-weight="800" text-anchor="end" fill="#f472b6">9軒</text>
<rect x="216" y="432" width="184" height="26" rx="13" fill="#fff" stroke="#E2D9CC"/>
<text x="228" y="450" font-size="13.5" fill="#241F1A">中央区</text><text x="388" y="450" font-size="14" font-weight="800" text-anchor="end" fill="#f472b6">6軒</text>
<rect x="20" y="464" width="184" height="26" rx="13" fill="#fff" stroke="#E2D9CC"/>
<text x="32" y="482" font-size="13.5" fill="#241F1A">港区</text><text x="192" y="482" font-size="14" font-weight="800" text-anchor="end" fill="#f472b6">5軒</text>
<rect x="216" y="464" width="184" height="26" rx="13" fill="#fff" stroke="#E2D9CC"/>
<text x="228" y="482" font-size="13.5" fill="#241F1A">千代田区</text><text x="388" y="482" font-size="14" font-weight="800" text-anchor="end" fill="#f472b6">4軒</text>
<rect x="20" y="496" width="184" height="26" rx="13" fill="#fff" stroke="#E2D9CC"/>
<text x="32" y="514" font-size="13.5" fill="#241F1A">品川区</text><text x="192" y="514" font-size="14" font-weight="800" text-anchor="end" fill="#f472b6">3軒</text>
<rect x="216" y="496" width="184" height="26" rx="13" fill="#fff" stroke="#E2D9CC"/>
<text x="228" y="514" font-size="13.5" fill="#241F1A">目黒区</text><text x="388" y="514" font-size="14" font-weight="800" text-anchor="end" fill="#f472b6">2軒</text>
<rect x="20" y="528" width="184" height="26" rx="13" fill="#fff" stroke="#E2D9CC"/>
<text x="32" y="546" font-size="13.5" fill="#241F1A">神奈川 川崎市</text><text x="192" y="546" font-size="14" font-weight="800" text-anchor="end" fill="#f472b6">2軒</text>
<rect x="216" y="528" width="184" height="26" rx="13" fill="#fff" stroke="#E2D9CC"/>
<text x="228" y="546" font-size="13.5" fill="#241F1A">台東区</text><text x="388" y="546" font-size="14" font-weight="800" text-anchor="end" fill="#f472b6">2軒</text>
<rect x="20" y="560" width="184" height="26" rx="13" fill="#fff" stroke="#E2D9CC"/>
<text x="32" y="578" font-size="13.5" fill="#241F1A">世田谷区</text><text x="192" y="578" font-size="14" font-weight="800" text-anchor="end" fill="#f472b6">1軒</text>
<rect x="216" y="560" width="184" height="26" rx="13" fill="#fff" stroke="#E2D9CC"/>
<text x="228" y="578" font-size="13.5" fill="#241F1A">新宿区</text><text x="388" y="578" font-size="14" font-weight="800" text-anchor="end" fill="#f472b6">1軒</text>
<rect x="20" y="592" width="184" height="26" rx="13" fill="#fff" stroke="#E2D9CC"/>
<text x="32" y="610" font-size="13.5" fill="#241F1A">武蔵野市</text><text x="192" y="610" font-size="14" font-weight="800" text-anchor="end" fill="#f472b6">1軒</text>
<rect x="216" y="592" width="184" height="26" rx="13" fill="#fff" stroke="#E2D9CC"/>
<text x="228" y="610" font-size="13.5" fill="#241F1A">神奈川</text><text x="388" y="610" font-size="14" font-weight="800" text-anchor="end" fill="#f472b6">1軒</text>
<rect x="20" y="624" width="184" height="26" rx="13" fill="#fff" stroke="#E2D9CC"/>
<text x="32" y="642" font-size="13.5" fill="#241F1A">中野区</text><text x="192" y="642" font-size="14" font-weight="800" text-anchor="end" fill="#f472b6">1軒</text>
<rect x="216" y="624" width="184" height="26" rx="13" fill="#fff" stroke="#E2D9CC"/>
<text x="228" y="642" font-size="13.5" fill="#241F1A">大阪 大阪市</text><text x="388" y="642" font-size="14" font-weight="800" text-anchor="end" fill="#f472b6">1軒</text>
</svg>