<svg xmlns="http://www.w3.org/2000/svg" viewBox="0 0 420 560" width="420" height="560" font-family="'Hiragino Sans','Noto Sans CJK JP','Noto Sans JP',sans-serif">
<rect width="420" height="560" rx="18" fill="#F7F3EC"/>
<text x="20" y="42" font-size="22" font-weight="800" fill="#241F1A" font-family="'Hiragino Mincho ProN','Noto Serif CJK JP','Noto Serif JP',serif">推し活ノートの書き方（例）</text>
<text x="20" y="64" font-size="12" fill="#6B6258">1回分を1ページに。あとで読み返すと楽しい</text>
<rect x="42" y="92" width="360" height="450" rx="14" fill="#E2D9CC"/><rect x="36" y="86" width="360" height="450" rx="14" fill="#fff" stroke="#241F1A" stroke-width="2"/><rect x="36" y="86" width="30" height="450" rx="14" fill="#14b8a6"/><rect x="52" y="86" width="14" height="450" fill="#14b8a6"/><circle cx="51" cy="116" r="5" fill="#fff"/><circle cx="51" cy="172" r="5" fill="#fff"/><circle cx="51" cy="228" r="5" fill="#fff"/><circle cx="51" cy="284" r="5" fill="#fff"/><circle cx="51" cy="340" r="5" fill="#fff"/><circle cx="51" cy="396" r="5" fill="#fff"/><circle cx="51" cy="452" r="5" fill="#fff"/><circle cx="51" cy="508" r="5" fill="#fff"/><text x="84" y="120" font-size="13" fill="#0F766E" font-weight="800">日付</text><text x="84" y="146" font-size="15" fill="#241F1A">○月○日（土）</text><line x1="84" y1="158" x2="378" y2="158" stroke="#E2D9CC" stroke-width="1.5" stroke-dasharray="4 4"/><text x="84" y="180" font-size="13" fill="#0F766E" font-weight="800">公演・作品</text><text x="84" y="206" font-size="15" fill="#241F1A">○○ツアー初日</text><line x1="84" y1="218" x2="378" y2="218" stroke="#E2D9CC" stroke-width="1.5" stroke-dasharray="4 4"/><text x="84" y="240" font-size="13" fill="#0F766E" font-weight="800">会場</text><text x="84" y="266" font-size="15" fill="#241F1A">○○ドーム</text><line x1="84" y1="278" x2="378" y2="278" stroke="#E2D9CC" stroke-width="1.5" stroke-dasharray="4 4"/><text x="84" y="300" font-size="13" fill="#0F766E" font-weight="800">心に残ったこと</text><text x="84" y="326" font-size="15" fill="#241F1A">○曲目の演出、ずっと覚えていたい</text><line x1="84" y1="338" x2="378" y2="338" stroke="#E2D9CC" stroke-width="1.5" stroke-dasharray="4 4"/><text x="84" y="360" font-size="13" fill="#0F766E" font-weight="800">行ったお店</text><text x="84" y="386" font-size="15" fill="#241F1A">推しが動画で行ったラーメン店</text><line x1="84" y1="398" x2="378" y2="398" stroke="#E2D9CC" stroke-width="1.5" stroke-dasharray="4 4"/><text x="84" y="420" font-size="13" fill="#0F766E" font-weight="800">食べたもの</text><text x="84" y="446" font-size="15" fill="#241F1A">推しと同じメニュー</text><line x1="84" y1="458" x2="378" y2="458" stroke="#E2D9CC" stroke-width="1.5" stroke-dasharray="4 4"/><text x="84" y="480" font-size="13" fill="#0F766E" font-weight="800">次に行きたい所</text><text x="84" y="506" font-size="15" fill="#241F1A">ロケ地のカフェ</text><line x1="84" y1="518" x2="378" y2="518" stroke="#E2D9CC" stroke-width="1.5" stroke-dasharray="4 4"/><g transform="translate(350,108)"><path d="M12 22S1.5 15 1.5 8.2A5.3 5.3 0 0 1 12 6a5.3 5.3 0 0 1 10.5 2.2C22.5 15 12 22 12 22z" fill="#14b8a6"/></g></svg>
