<svg xmlns="http://www.w3.org/2000/svg" viewBox="0 0 420 1096" width="420" height="1096" font-family="'Hiragino Sans','Noto Sans CJK JP','Noto Sans JP',sans-serif">
<rect width="420" height="1096" rx="18" fill="#F7F3EC"/>
<text x="20" y="42" font-size="21" font-weight="800" fill="#241F1A" font-family="'Hiragino Mincho ProN','Noto Serif CJK JP','Noto Serif JP',serif">Season10 全12話と巡れるお店</text>
<text x="20" y="66" font-size="12" fill="#6B6258">色つきの話＝このサイトにお店が載っている回（12話・14軒）</text>
<rect x="20" y="96" width="60" height="78" rx="10" fill="#92400e"/>
<text x="50" y="122" font-size="15" font-weight="800" text-anchor="middle" fill="#fff">第1話</text>
<text x="50" y="141" font-size="12" text-anchor="middle" fill="#fff">10/7</text>
<rect x="88" y="96" width="312" height="78" rx="10" fill="#fff" stroke="#E2D9CC"/>
<text x="100" y="120" font-size="15" font-weight="800" fill="#241F1A">よしの食堂</text>
<text x="100" y="140" font-size="12.5" fill="#92400e">神奈川県相模原市橋本の牛肉のスタミナ炒めとネギ</text>
<text x="100" y="157" font-size="12.5" fill="#92400e">玉</text>
<rect x="20" y="184" width="60" height="83" rx="10" fill="#92400e"/>
<text x="50" y="210" font-size="15" font-weight="800" text-anchor="middle" fill="#fff">第2話</text>
<text x="50" y="229" font-size="12" text-anchor="middle" fill="#fff">10/14</text>
<rect x="88" y="184" width="312" height="83" rx="10" fill="#fff" stroke="#E2D9CC"/>
<text x="100" y="208" font-size="15" font-weight="800" fill="#241F1A">チャベ 目黒店</text>
<text x="100" y="230" font-size="15" font-weight="800" fill="#241F1A">もつ焼きばん 高田馬場店</text>
<text x="100" y="250" font-size="12.5" fill="#92400e">東京都港区白金台のルンダンとナシゴレン</text>
<rect x="20" y="277" width="60" height="78" rx="10" fill="#92400e"/>
<text x="50" y="303" font-size="15" font-weight="800" text-anchor="middle" fill="#fff">第3話</text>
<text x="50" y="322" font-size="12" text-anchor="middle" fill="#fff">10/21</text>
<rect x="88" y="277" width="312" height="78" rx="10" fill="#fff" stroke="#E2D9CC"/>
<text x="100" y="301" font-size="15" font-weight="800" fill="#241F1A">キッチン・カフェ ばる</text>
<text x="100" y="321" font-size="12.5" fill="#92400e">神奈川県横浜市桜木町の真鯛のソテーオーロラーソ</text>
<text x="100" y="338" font-size="12.5" fill="#92400e">ースとまぐろのユッケどんぶり</text>
<rect x="20" y="365" width="60" height="78" rx="10" fill="#92400e"/>
<text x="50" y="391" font-size="15" font-weight="800" text-anchor="middle" fill="#fff">第4話</text>
<text x="50" y="410" font-size="12" text-anchor="middle" fill="#fff">10/28</text>
<rect x="88" y="365" width="312" height="78" rx="10" fill="#fff" stroke="#E2D9CC"/>
<text x="100" y="389" font-size="15" font-weight="800" fill="#241F1A">ビストロ KUROKAWA</text>
<text x="100" y="409" font-size="12.5" fill="#92400e">東京都練馬区大泉学園のサザエとキノコのプロヴァ</text>
<text x="100" y="426" font-size="12.5" fill="#92400e">ンス風と牛タンシチューのオムライス</text>
<rect x="20" y="453" width="60" height="62" rx="10" fill="#92400e"/>
<text x="50" y="479" font-size="15" font-weight="800" text-anchor="middle" fill="#fff">第5話</text>
<text x="50" y="498" font-size="12" text-anchor="middle" fill="#fff">11/4</text>
<rect x="88" y="453" width="312" height="62" rx="10" fill="#fff" stroke="#E2D9CC"/>
<text x="100" y="477" font-size="15" font-weight="800" fill="#241F1A">いづみ亭</text>
<text x="100" y="497" font-size="12.5" fill="#92400e">千葉県柏市鷲野谷のネギレバ炒と鶏皮餃子</text>
<rect x="20" y="525" width="60" height="62" rx="10" fill="#92400e"/>
<text x="50" y="551" font-size="15" font-weight="800" text-anchor="middle" fill="#fff">第6話</text>
<text x="50" y="570" font-size="12" text-anchor="middle" fill="#fff">11/11</text>
<rect x="88" y="525" width="312" height="62" rx="10" fill="#fff" stroke="#E2D9CC"/>
<text x="100" y="549" font-size="15" font-weight="800" fill="#241F1A">大安食堂</text>
<text x="100" y="569" font-size="12.5" fill="#92400e">岐阜県下呂市のとんちゃんとけいちゃん</text>
<rect x="20" y="597" width="60" height="78" rx="10" fill="#92400e"/>
<text x="50" y="623" font-size="15" font-weight="800" text-anchor="middle" fill="#fff">第7話</text>
<text x="50" y="642" font-size="12" text-anchor="middle" fill="#fff">11/18</text>
<rect x="88" y="597" width="312" height="78" rx="10" fill="#fff" stroke="#E2D9CC"/>
<text x="100" y="621" font-size="15" font-weight="800" fill="#241F1A">山横沢</text>
<text x="100" y="641" font-size="12.5" fill="#92400e">東京都渋谷区笹塚のふうちゃんぷるととまとカレー</text>
<text x="100" y="658" font-size="12.5" fill="#92400e">つけそば</text>
<rect x="20" y="685" width="60" height="83" rx="10" fill="#92400e"/>
<text x="50" y="711" font-size="15" font-weight="800" text-anchor="middle" fill="#fff">第8話</text>
<text x="50" y="730" font-size="12" text-anchor="middle" fill="#fff">11/25</text>
<rect x="88" y="685" width="312" height="83" rx="10" fill="#fff" stroke="#E2D9CC"/>
<text x="100" y="709" font-size="15" font-weight="800" fill="#241F1A">アナザーホリデー</text>
<text x="100" y="731" font-size="15" font-weight="800" fill="#241F1A">居酒屋 舞子</text>
<text x="100" y="751" font-size="12.5" fill="#92400e">富山県富山市のかに面おでんと海鮮とろろ丼</text>
<rect x="20" y="778" width="60" height="62" rx="10" fill="#92400e"/>
<text x="50" y="804" font-size="15" font-weight="800" text-anchor="middle" fill="#fff">第9話</text>
<text x="50" y="823" font-size="12" text-anchor="middle" fill="#fff">12/2</text>
<rect x="88" y="778" width="312" height="62" rx="10" fill="#fff" stroke="#E2D9CC"/>
<text x="100" y="802" font-size="15" font-weight="800" fill="#241F1A">世味</text>
<text x="100" y="822" font-size="12.5" fill="#92400e">東京都荒川区日暮里の酢豚とチャムチャ麺</text>
<rect x="20" y="850" width="60" height="62" rx="10" fill="#92400e"/>
<text x="50" y="876" font-size="15" font-weight="800" text-anchor="middle" fill="#fff">第10話</text>
<text x="50" y="895" font-size="12" text-anchor="middle" fill="#fff">12/9</text>
<rect x="88" y="850" width="312" height="62" rx="10" fill="#fff" stroke="#E2D9CC"/>
<text x="100" y="874" font-size="15" font-weight="800" fill="#241F1A">粥菜坊</text>
<text x="100" y="894" font-size="12.5" fill="#92400e">神奈川県川崎市中原区の豚肉腸粉と雲吞麺</text>
<rect x="20" y="922" width="60" height="62" rx="10" fill="#92400e"/>
<text x="50" y="948" font-size="15" font-weight="800" text-anchor="middle" fill="#fff">第11話</text>
<text x="50" y="967" font-size="12" text-anchor="middle" fill="#fff">12/16</text>
<rect x="88" y="922" width="312" height="62" rx="10" fill="#fff" stroke="#E2D9CC"/>
<text x="100" y="946" font-size="15" font-weight="800" fill="#241F1A">レストラン バイキング</text>
<text x="100" y="966" font-size="12.5" fill="#92400e">千葉県旭市の塩ワサビの豚ロースソテー</text>
<rect x="20" y="994" width="60" height="62" rx="10" fill="#92400e"/>
<text x="50" y="1020" font-size="15" font-weight="800" text-anchor="middle" fill="#fff">第12話</text>
<text x="50" y="1039" font-size="12" text-anchor="middle" fill="#fff">12/23</text>
<rect x="88" y="994" width="312" height="62" rx="10" fill="#fff" stroke="#E2D9CC"/>
<text x="100" y="1018" font-size="15" font-weight="800" fill="#241F1A">ラ・タベルナ</text>
<text x="100" y="1038" font-size="12.5" fill="#92400e">東京都千代田区麹町のイタリア食堂のミートローフ</text>
<text x="20" y="1084" font-size="12" fill="#6B6258">日付は放送日（2022年〜）。各話タイトル・放送日はTMDBより</text>
</svg>