<svg xmlns="http://www.w3.org/2000/svg" width="1200" height="675" viewBox="0 0 1200 675">
<defs>
<linearGradient id="sky" x1="0" y1="0" x2="0" y2="1"><stop offset="0" stop-color="#0f1d3d"/><stop offset=".4" stop-color="#26407a"/><stop offset=".68" stop-color="#4f78b3"/><stop offset=".82" stop-color="#93b7d9"/><stop offset="1" stop-color="#d9e6f0"/></linearGradient>
<linearGradient id="far" x1="0" y1="0" x2="0" y2="1"><stop offset="0" stop-color="#4a4568"/><stop offset="1" stop-color="#2e2b47"/></linearGradient>
<linearGradient id="tower" x1="0" y1="0" x2="1" y2="0"><stop offset="0" stop-color="#262a46"/><stop offset=".55" stop-color="#454a70"/><stop offset="1" stop-color="#23263f"/></linearGradient>
<radialGradient id="roof" cx=".38" cy=".15" r="1"><stop offset="0" stop-color="#ffffff"/><stop offset=".45" stop-color="#f1f4f9"/><stop offset=".8" stop-color="#cdd6e2"/><stop offset="1" stop-color="#a9b5c6"/></radialGradient>
<linearGradient id="rim" x1="0" y1="0" x2="1" y2="0"><stop offset="0" stop-color="#f6b98a" stop-opacity="0"/><stop offset=".75" stop-color="#f6b98a" stop-opacity="0"/><stop offset="1" stop-color="#f6b98a" stop-opacity=".5"/></linearGradient>
<linearGradient id="wall" x1="0" y1="0" x2="0" y2="1"><stop offset="0" stop-color="#c6cfdb"/><stop offset="1" stop-color="#6f7a8d"/></linearGradient>
<linearGradient id="ground" x1="0" y1="0" x2="0" y2="1"><stop offset="0" stop-color="#3a3348"/><stop offset="1" stop-color="#15121f"/></linearGradient>
<radialGradient id="lamp" cx=".5" cy=".5" r=".5"><stop offset="0" stop-color="#ffe9b8" stop-opacity=".9"/><stop offset="1" stop-color="#ffe9b8" stop-opacity="0"/></radialGradient>
<radialGradient id="sun" cx=".5" cy=".5" r=".5"><stop offset="0" stop-color="#ffe2b0" stop-opacity=".8"/><stop offset="1" stop-color="#ffe2b0" stop-opacity="0"/></radialGradient>
<filter id="soft"><feGaussianBlur stdDeviation="1.4"/></filter>
<filter id="grain"><feTurbulence type="fractalNoise" baseFrequency=".9" numOctaves="2" stitchTiles="stitch"/><feColorMatrix values="0 0 0 0 .5  0 0 0 0 .5  0 0 0 0 .5  0 0 0 .07 0"/></filter>
</defs>
<rect width="1200" height="675" fill="url(#sky)"/>
<circle cx="220" cy="87" r="0.5" fill="#fff" opacity="0.40"/><circle cx="356" cy="117" r="1.0" fill="#fff" opacity="0.39"/><circle cx="70" cy="79" r="0.7" fill="#fff" opacity="0.47"/><circle cx="1033" cy="110" r="0.9" fill="#fff" opacity="0.50"/><circle cx="67" cy="105" r="0.5" fill="#fff" opacity="0.55"/><circle cx="386" cy="115" r="1.0" fill="#fff" opacity="0.30"/><circle cx="325" cy="132" r="0.9" fill="#fff" opacity="0.70"/><circle cx="12" cy="145" r="0.5" fill="#fff" opacity="0.55"/><circle cx="19" cy="164" r="1.0" fill="#fff" opacity="0.56"/><circle cx="681" cy="13" r="0.6" fill="#fff" opacity="0.24"/><circle cx="1156" cy="129" r="0.7" fill="#fff" opacity="0.32"/><circle cx="192" cy="99" r="0.4" fill="#fff" opacity="0.55"/><circle cx="29" cy="76" r="0.4" fill="#fff" opacity="0.43"/><circle cx="664" cy="52" r="0.8" fill="#fff" opacity="0.30"/><circle cx="447" cy="44" r="0.7" fill="#fff" opacity="0.43"/><circle cx="959" cy="55" r="0.8" fill="#fff" opacity="0.59"/><circle cx="860" cy="2" r="0.9" fill="#fff" opacity="0.21"/><circle cx="393" cy="112" r="0.7" fill="#fff" opacity="0.21"/><circle cx="813" cy="156" r="1.1" fill="#fff" opacity="0.60"/><circle cx="443" cy="150" r="0.7" fill="#fff" opacity="0.66"/><circle cx="919" cy="59" r="0.5" fill="#fff" opacity="0.21"/><circle cx="47" cy="73" r="0.7" fill="#fff" opacity="0.59"/><circle cx="338" cy="87" r="0.8" fill="#fff" opacity="0.68"/><circle cx="425" cy="14" r="0.5" fill="#fff" opacity="0.64"/><circle cx="986" cy="56" r="0.9" fill="#fff" opacity="0.45"/><circle cx="104" cy="2" r="0.6" fill="#fff" opacity="0.36"/><circle cx="111" cy="38" r="0.9" fill="#fff" opacity="0.33"/><circle cx="168" cy="86" r="0.9" fill="#fff" opacity="0.52"/><circle cx="565" cy="20" r="1.0" fill="#fff" opacity="0.21"/><circle cx="888" cy="44" r="0.8" fill="#fff" opacity="0.27"/><circle cx="531" cy="142" r="1.0" fill="#fff" opacity="0.63"/><circle cx="150" cy="155" r="0.6" fill="#fff" opacity="0.35"/><circle cx="221" cy="138" r="0.6" fill="#fff" opacity="0.45"/><circle cx="304" cy="103" r="0.4" fill="#fff" opacity="0.31"/><circle cx="811" cy="93" r="0.5" fill="#fff" opacity="0.52"/><circle cx="582" cy="138" r="0.8" fill="#fff" opacity="0.69"/><circle cx="538" cy="99" r="0.6" fill="#fff" opacity="0.61"/><circle cx="1012" cy="122" r="0.6" fill="#fff" opacity="0.45"/><circle cx="472" cy="140" r="0.7" fill="#fff" opacity="0.68"/><circle cx="882" cy="47" r="1.1" fill="#fff" opacity="0.25"/><circle cx="769" cy="67" r="0.5" fill="#fff" opacity="0.36"/><circle cx="36" cy="63" r="0.9" fill="#fff" opacity="0.40"/><circle cx="656" cy="85" r="0.4" fill="#fff" opacity="0.62"/><circle cx="1129" cy="63" r="0.7" fill="#fff" opacity="0.68"/><circle cx="896" cy="148" r="0.9" fill="#fff" opacity="0.29"/><circle cx="179" cy="130" r="1.1" fill="#fff" opacity="0.68"/><circle cx="182" cy="140" r="0.8" fill="#fff" opacity="0.26"/><circle cx="111" cy="52" r="0.6" fill="#fff" opacity="0.35"/><circle cx="345" cy="93" r="0.8" fill="#fff" opacity="0.26"/><circle cx="601" cy="142" r="1.0" fill="#fff" opacity="0.56"/><circle cx="851" cy="137" r="1.0" fill="#fff" opacity="0.53"/><circle cx="1103" cy="22" r="0.7" fill="#fff" opacity="0.31"/><circle cx="1022" cy="128" r="0.7" fill="#fff" opacity="0.40"/><circle cx="80" cy="19" r="0.6" fill="#fff" opacity="0.34"/><circle cx="317" cy="17" r="0.8" fill="#fff" opacity="0.28"/><circle cx="58" cy="115" r="0.5" fill="#fff" opacity="0.30"/><circle cx="489" cy="77" r="0.6" fill="#fff" opacity="0.41"/><circle cx="78" cy="123" r="0.8" fill="#fff" opacity="0.51"/><circle cx="540" cy="64" r="1.1" fill="#fff" opacity="0.35"/><circle cx="102" cy="96" r="0.4" fill="#fff" opacity="0.28"/><circle cx="765" cy="82" r="1.0" fill="#fff" opacity="0.22"/><circle cx="167" cy="126" r="0.5" fill="#fff" opacity="0.49"/><circle cx="1130" cy="89" r="0.6" fill="#fff" opacity="0.56"/><circle cx="646" cy="98" r="0.9" fill="#fff" opacity="0.34"/><circle cx="130" cy="120" r="0.8" fill="#fff" opacity="0.52"/><circle cx="503" cy="88" r="1.0" fill="#fff" opacity="0.26"/><circle cx="365" cy="18" r="0.5" fill="#fff" opacity="0.20"/><circle cx="349" cy="54" r="0.7" fill="#fff" opacity="0.69"/><circle cx="928" cy="90" r="0.9" fill="#fff" opacity="0.36"/><circle cx="975" cy="86" r="1.1" fill="#fff" opacity="0.65"/>
<circle cx="900" cy="430" r="160" fill="url(#sun)"/>
<g filter="url(#soft)"><ellipse cx="7.5" cy="409.7" rx="44" ry="49" fill="#1f3a2e" opacity=".9"/><ellipse cx="60.0" cy="418.4" rx="42" ry="39" fill="#1f3a2e" opacity=".9"/><ellipse cx="133.0" cy="419.0" rx="72" ry="38" fill="#1f3a2e" opacity=".9"/><ellipse cx="201.5" cy="396.8" rx="33" ry="64" fill="#1f3a2e" opacity=".9"/><ellipse cx="247.5" cy="425.9" rx="47" ry="30" fill="#1f3a2e" opacity=".9"/><ellipse cx="319.0" cy="417.2" rx="70" ry="41" fill="#1f3a2e" opacity=".9"/><ellipse cx="391.0" cy="425.9" rx="54" ry="30" fill="#1f3a2e" opacity=".9"/><ellipse cx="450.0" cy="413.0" rx="46" ry="46" fill="#1f3a2e" opacity=".9"/><ellipse cx="505.0" cy="382.1" rx="35" ry="82" fill="#1f3a2e" opacity=".9"/><ellipse cx="573.0" cy="409.7" rx="70" ry="49" fill="#1f3a2e" opacity=".9"/><ellipse cx="640.5" cy="394.4" rx="33" ry="67" fill="#1f3a2e" opacity=".9"/><ellipse cx="709.0" cy="403.7" rx="70" ry="56" fill="#1f3a2e" opacity=".9"/><ellipse cx="772.0" cy="381.5" rx="30" ry="82" fill="#1f3a2e" opacity=".9"/><ellipse cx="812.0" cy="392.6" rx="32" ry="69" fill="#1f3a2e" opacity=".9"/><ellipse cx="853.0" cy="396.2" rx="37" ry="65" fill="#1f3a2e" opacity=".9"/><ellipse cx="900.5" cy="391.1" rx="49" ry="71" fill="#1f3a2e" opacity=".9"/><ellipse cx="976.0" cy="381.2" rx="66" ry="83" fill="#1f3a2e" opacity=".9"/><ellipse cx="1058.5" cy="382.4" rx="66" ry="81" fill="#1f3a2e" opacity=".9"/><ellipse cx="1143.0" cy="403.7" rx="75" ry="56" fill="#1f3a2e" opacity=".9"/><ellipse cx="1236.0" cy="412.1" rx="67" ry="47" fill="#1f3a2e" opacity=".9"/></g>


<ellipse cx="590" cy="500" rx="465" ry="80" fill="url(#lamp)" opacity=".5"/>
<rect x="280.0" y="412" width="620" height="120" rx="14" fill="url(#wall)"/><path d="M260.0,416 Q590,310 920.0,416 Z" fill="url(#roof)"/><path d="M315,416 L425,338" stroke="#9fb0c4" stroke-width="1.2" opacity=".4"/><path d="M370,416 L458,338" stroke="#9fb0c4" stroke-width="1.2" opacity=".4"/><path d="M425,416 L491,338" stroke="#9fb0c4" stroke-width="1.2" opacity=".4"/><path d="M480,416 L524,338" stroke="#9fb0c4" stroke-width="1.2" opacity=".4"/><path d="M535,416 L557,338" stroke="#9fb0c4" stroke-width="1.2" opacity=".4"/><path d="M590,416 L590,338" stroke="#9fb0c4" stroke-width="1.2" opacity=".4"/><path d="M645,416 L623,338" stroke="#9fb0c4" stroke-width="1.2" opacity=".4"/><path d="M700,416 L656,338" stroke="#9fb0c4" stroke-width="1.2" opacity=".4"/><path d="M755,416 L689,338" stroke="#9fb0c4" stroke-width="1.2" opacity=".4"/><path d="M810,416 L722,338" stroke="#9fb0c4" stroke-width="1.2" opacity=".4"/><path d="M865,416 L755,338" stroke="#9fb0c4" stroke-width="1.2" opacity=".4"/><rect x="300.0" y="434" width="580" height="40" fill="#2c3550" opacity=".85"/><rect x="306.0" y="440" width="17" height="28" fill="#ffe2b0" opacity="0.55"/><rect x="331.0" y="440" width="17" height="28" fill="#ffe2b0" opacity="0.77"/><rect x="356.0" y="440" width="17" height="28" fill="#ffe2b0" opacity="0.56"/><rect x="381.0" y="440" width="17" height="28" fill="#ffe2b0" opacity="0.61"/><rect x="406.0" y="440" width="17" height="28" fill="#ffe2b0" opacity="0.68"/><rect x="431.0" y="440" width="17" height="28" fill="#ffe2b0" opacity="0.84"/><rect x="456.0" y="440" width="17" height="28" fill="#ffe2b0" opacity="0.56"/><rect x="481.0" y="440" width="17" height="28" fill="#ffe2b0" opacity="0.74"/><rect x="506.0" y="440" width="17" height="28" fill="#ffe2b0" opacity="0.50"/><rect x="531.0" y="440" width="17" height="28" fill="#ffe2b0" opacity="0.78"/><rect x="556.0" y="440" width="17" height="28" fill="#ffe2b0" opacity="0.90"/><rect x="581.0" y="440" width="17" height="28" fill="#ffe2b0" opacity="0.73"/><rect x="606.0" y="440" width="17" height="28" fill="#ffe2b0" opacity="0.92"/><rect x="631.0" y="440" width="17" height="28" fill="#ffe2b0" opacity="0.75"/><rect x="656.0" y="440" width="17" height="28" fill="#ffe2b0" opacity="0.52"/><rect x="681.0" y="440" width="17" height="28" fill="#ffe2b0" opacity="0.80"/><rect x="706.0" y="440" width="17" height="28" fill="#ffe2b0" opacity="0.98"/><rect x="731.0" y="440" width="17" height="28" fill="#ffe2b0" opacity="0.94"/><rect x="756.0" y="440" width="17" height="28" fill="#ffe2b0" opacity="0.80"/><rect x="781.0" y="440" width="17" height="28" fill="#ffe2b0" opacity="0.93"/><rect x="806.0" y="440" width="17" height="28" fill="#ffe2b0" opacity="0.46"/><rect x="831.0" y="440" width="17" height="28" fill="#ffe2b0" opacity="0.57"/><rect x="856.0" y="440" width="17" height="28" fill="#ffe2b0" opacity="0.60"/><rect x="470" y="500" width="240" height="32" fill="#ffe7bd" opacity=".9"/><path d="M440,500 L740,500" stroke="#e8edf3" stroke-width="6"/>
<rect x="0" y="532" width="1200" height="143" fill="url(#ground)"/>
<ellipse cx="-10" cy="540" rx="27" ry="19" fill="#1f2a2a" opacity=".9"/><ellipse cx="48" cy="540" rx="24" ry="20" fill="#1f2a2a" opacity=".9"/><ellipse cx="106" cy="540" rx="26" ry="23" fill="#1f2a2a" opacity=".9"/><ellipse cx="164" cy="540" rx="23" ry="25" fill="#1f2a2a" opacity=".9"/><ellipse cx="222" cy="540" rx="23" ry="18" fill="#1f2a2a" opacity=".9"/><ellipse cx="280" cy="540" rx="26" ry="21" fill="#1f2a2a" opacity=".9"/><ellipse cx="338" cy="540" rx="30" ry="26" fill="#1f2a2a" opacity=".9"/><ellipse cx="396" cy="540" rx="27" ry="26" fill="#1f2a2a" opacity=".9"/><ellipse cx="454" cy="540" rx="22" ry="19" fill="#1f2a2a" opacity=".9"/><ellipse cx="512" cy="540" rx="27" ry="23" fill="#1f2a2a" opacity=".9"/><ellipse cx="570" cy="540" rx="32" ry="19" fill="#1f2a2a" opacity=".9"/><ellipse cx="628" cy="540" rx="23" ry="24" fill="#1f2a2a" opacity=".9"/><ellipse cx="686" cy="540" rx="33" ry="25" fill="#1f2a2a" opacity=".9"/><ellipse cx="744" cy="540" rx="23" ry="19" fill="#1f2a2a" opacity=".9"/><ellipse cx="802" cy="540" rx="27" ry="24" fill="#1f2a2a" opacity=".9"/><ellipse cx="860" cy="540" rx="25" ry="22" fill="#1f2a2a" opacity=".9"/><ellipse cx="918" cy="540" rx="30" ry="24" fill="#1f2a2a" opacity=".9"/><ellipse cx="976" cy="540" rx="34" ry="26" fill="#1f2a2a" opacity=".9"/><ellipse cx="1034" cy="540" rx="32" ry="24" fill="#1f2a2a" opacity=".9"/><ellipse cx="1092" cy="540" rx="27" ry="19" fill="#1f2a2a" opacity=".9"/><ellipse cx="1150" cy="540" rx="28" ry="21" fill="#1f2a2a" opacity=".9"/><ellipse cx="1208" cy="540" rx="23" ry="24" fill="#1f2a2a" opacity=".9"/><g><line x1="60" y1="590" x2="60" y2="542" stroke="#2a2733" stroke-width="3"/><circle cx="60" cy="540" r="16" fill="url(#lamp)"/><circle cx="60" cy="540" r="3" fill="#fff2cc"/></g><g><line x1="200" y1="590" x2="200" y2="542" stroke="#2a2733" stroke-width="3"/><circle cx="200" cy="540" r="16" fill="url(#lamp)"/><circle cx="200" cy="540" r="3" fill="#fff2cc"/></g><g><line x1="340" y1="590" x2="340" y2="542" stroke="#2a2733" stroke-width="3"/><circle cx="340" cy="540" r="16" fill="url(#lamp)"/><circle cx="340" cy="540" r="3" fill="#fff2cc"/></g><g><line x1="480" y1="590" x2="480" y2="542" stroke="#2a2733" stroke-width="3"/><circle cx="480" cy="540" r="16" fill="url(#lamp)"/><circle cx="480" cy="540" r="3" fill="#fff2cc"/></g><g><line x1="620" y1="590" x2="620" y2="542" stroke="#2a2733" stroke-width="3"/><circle cx="620" cy="540" r="16" fill="url(#lamp)"/><circle cx="620" cy="540" r="3" fill="#fff2cc"/></g><g><line x1="760" y1="590" x2="760" y2="542" stroke="#2a2733" stroke-width="3"/><circle cx="760" cy="540" r="16" fill="url(#lamp)"/><circle cx="760" cy="540" r="3" fill="#fff2cc"/></g><g><line x1="900" y1="590" x2="900" y2="542" stroke="#2a2733" stroke-width="3"/><circle cx="900" cy="540" r="16" fill="url(#lamp)"/><circle cx="900" cy="540" r="3" fill="#fff2cc"/></g><g><line x1="1040" y1="590" x2="1040" y2="542" stroke="#2a2733" stroke-width="3"/><circle cx="1040" cy="540" r="16" fill="url(#lamp)"/><circle cx="1040" cy="540" r="3" fill="#fff2cc"/></g><g><line x1="1180" y1="590" x2="1180" y2="542" stroke="#2a2733" stroke-width="3"/><circle cx="1180" cy="540" r="16" fill="url(#lamp)"/><circle cx="1180" cy="540" r="3" fill="#fff2cc"/></g><ellipse cx="560" cy="618" rx="2.5" ry="3.8" fill="#f7d9b5" opacity="0.46"/><ellipse cx="782" cy="639" rx="1.7" ry="3.5" fill="#f4efe6" opacity="0.52"/><ellipse cx="289" cy="634" rx="2.2" ry="3.6" fill="#f4efe6" opacity="0.51"/><ellipse cx="171" cy="628" rx="2.7" ry="3.5" fill="#f7d9b5" opacity="0.69"/><ellipse cx="280" cy="663" rx="2.6" ry="4.2" fill="#f7d9b5" opacity="0.53"/><ellipse cx="180" cy="609" rx="2.5" ry="4.8" fill="#f7d9b5" opacity="0.50"/><ellipse cx="65" cy="638" rx="2.0" ry="4.3" fill="#c9d6ef" opacity="0.64"/><ellipse cx="616" cy="599" rx="2.9" ry="3.3" fill="#e9b7c8" opacity="0.74"/><ellipse cx="1032" cy="611" rx="2.7" ry="4.7" fill="#f4efe6" opacity="0.59"/><ellipse cx="1106" cy="606" rx="2.2" ry="3.6" fill="#f4efe6" opacity="0.58"/><ellipse cx="561" cy="658" rx="2.4" ry="5.6" fill="#c9d6ef" opacity="0.53"/><ellipse cx="952" cy="589" rx="1.5" ry="3.7" fill="#f7d9b5" opacity="0.36"/><ellipse cx="997" cy="587" rx="2.7" ry="5.5" fill="#f7d9b5" opacity="0.50"/><ellipse cx="376" cy="601" rx="2.5" ry="4.9" fill="#e9b7c8" opacity="0.82"/><ellipse cx="408" cy="626" rx="2.2" ry="4.4" fill="#f7d9b5" opacity="0.48"/><ellipse cx="378" cy="593" rx="1.8" ry="6.0" fill="#f4efe6" opacity="0.78"/><ellipse cx="194" cy="604" rx="1.9" ry="4.2" fill="#c9d6ef" opacity="0.66"/><ellipse cx="1013" cy="593" rx="1.7" ry="4.6" fill="#e9b7c8" opacity="0.48"/><ellipse cx="761" cy="604" rx="1.8" ry="4.7" fill="#e9b7c8" opacity="0.40"/><ellipse cx="879" cy="654" rx="2.9" ry="5.5" fill="#e9b7c8" opacity="0.73"/><ellipse cx="692" cy="653" rx="1.7" ry="4.6" fill="#f4efe6" opacity="0.44"/><ellipse cx="868" cy="621" rx="2.7" ry="5.3" fill="#c9d6ef" opacity="0.55"/><ellipse cx="480" cy="608" rx="2.0" ry="5.6" fill="#c9d6ef" opacity="0.51"/><ellipse cx="386" cy="653" rx="1.6" ry="4.7" fill="#e9b7c8" opacity="0.40"/><ellipse cx="502" cy="617" rx="2.3" ry="4.7" fill="#c9d6ef" opacity="0.55"/><ellipse cx="213" cy="655" rx="2.0" ry="3.1" fill="#f4efe6" opacity="0.63"/><ellipse cx="1067" cy="618" rx="1.6" ry="3.9" fill="#f7d9b5" opacity="0.81"/><ellipse cx="819" cy="612" rx="1.9" ry="4.8" fill="#f7d9b5" opacity="0.43"/><ellipse cx="335" cy="584" rx="2.7" ry="5.3" fill="#f7d9b5" opacity="0.50"/><ellipse cx="335" cy="619" rx="2.8" ry="3.5" fill="#e9b7c8" opacity="0.48"/><ellipse cx="664" cy="659" rx="2.8" ry="4.2" fill="#e9b7c8" opacity="0.57"/><ellipse cx="612" cy="652" rx="2.9" ry="4.7" fill="#e9b7c8" opacity="0.47"/><ellipse cx="1021" cy="641" rx="2.7" ry="5.7" fill="#e9b7c8" opacity="0.53"/><ellipse cx="292" cy="602" rx="2.6" ry="3.5" fill="#c9d6ef" opacity="0.39"/><ellipse cx="92" cy="623" rx="2.6" ry="3.3" fill="#f4efe6" opacity="0.59"/><ellipse cx="961" cy="624" rx="2.3" ry="3.2" fill="#f7d9b5" opacity="0.67"/><ellipse cx="491" cy="609" rx="1.5" ry="3.8" fill="#f7d9b5" opacity="0.38"/><ellipse cx="155" cy="630" rx="1.8" ry="3.4" fill="#c9d6ef" opacity="0.56"/><ellipse cx="176" cy="609" rx="1.7" ry="5.2" fill="#e9b7c8" opacity="0.51"/><ellipse cx="62" cy="623" rx="2.5" ry="3.8" fill="#c9d6ef" opacity="0.76"/><ellipse cx="231" cy="622" rx="1.8" ry="3.1" fill="#f7d9b5" opacity="0.82"/><ellipse cx="503" cy="646" rx="2.6" ry="4.4" fill="#c9d6ef" opacity="0.82"/><ellipse cx="825" cy="640" rx="2.8" ry="4.2" fill="#e9b7c8" opacity="0.67"/><ellipse cx="773" cy="643" rx="2.7" ry="4.0" fill="#e9b7c8" opacity="0.52"/><ellipse cx="257" cy="594" rx="2.5" ry="6.0" fill="#f4efe6" opacity="0.45"/><ellipse cx="351" cy="651" rx="2.2" ry="3.8" fill="#f4efe6" opacity="0.41"/><ellipse cx="1057" cy="641" rx="1.9" ry="3.9" fill="#f4efe6" opacity="0.44"/><ellipse cx="296" cy="660" rx="2.9" ry="3.4" fill="#c9d6ef" opacity="0.72"/><ellipse cx="928" cy="595" rx="1.5" ry="3.7" fill="#f4efe6" opacity="0.82"/><ellipse cx="301" cy="608" rx="2.0" ry="4.0" fill="#f4efe6" opacity="0.82"/><ellipse cx="418" cy="663" rx="2.2" ry="3.1" fill="#e9b7c8" opacity="0.75"/><ellipse cx="276" cy="587" rx="2.0" ry="4.2" fill="#e9b7c8" opacity="0.77"/><ellipse cx="924" cy="624" rx="1.6" ry="4.9" fill="#c9d6ef" opacity="0.71"/><ellipse cx="704" cy="616" rx="1.6" ry="4.9" fill="#c9d6ef" opacity="0.59"/><ellipse cx="570" cy="589" rx="1.8" ry="3.5" fill="#f4efe6" opacity="0.37"/><ellipse cx="675" cy="628" rx="3.0" ry="4.6" fill="#f4efe6" opacity="0.42"/><ellipse cx="348" cy="646" rx="2.9" ry="4.9" fill="#c9d6ef" opacity="0.41"/><ellipse cx="132" cy="631" rx="2.8" ry="3.8" fill="#f4efe6" opacity="0.77"/><ellipse cx="279" cy="607" rx="2.2" ry="3.8" fill="#f7d9b5" opacity="0.81"/><ellipse cx="101" cy="666" rx="2.6" ry="5.5" fill="#e9b7c8" opacity="0.39"/><ellipse cx="628" cy="594" rx="2.2" ry="5.2" fill="#e9b7c8" opacity="0.39"/><ellipse cx="868" cy="645" rx="2.3" ry="3.2" fill="#f7d9b5" opacity="0.69"/><ellipse cx="976" cy="619" rx="2.6" ry="4.2" fill="#f4efe6" opacity="0.59"/><ellipse cx="267" cy="613" rx="2.1" ry="3.7" fill="#f4efe6" opacity="0.60"/><ellipse cx="607" cy="644" rx="2.1" ry="5.8" fill="#f7d9b5" opacity="0.76"/><ellipse cx="835" cy="587" rx="2.6" ry="4.0" fill="#f4efe6" opacity="0.85"/><ellipse cx="173" cy="597" rx="1.9" ry="3.1" fill="#f7d9b5" opacity="0.37"/><ellipse cx="347" cy="585" rx="2.5" ry="5.8" fill="#c9d6ef" opacity="0.71"/><ellipse cx="696" cy="621" rx="1.6" ry="3.5" fill="#f7d9b5" opacity="0.38"/><ellipse cx="431" cy="653" rx="2.3" ry="3.5" fill="#e9b7c8" opacity="0.81"/><ellipse cx="284" cy="611" rx="2.9" ry="3.0" fill="#c9d6ef" opacity="0.42"/><ellipse cx="781" cy="604" rx="2.8" ry="5.1" fill="#f4efe6" opacity="0.59"/><ellipse cx="857" cy="601" rx="2.3" ry="4.7" fill="#f7d9b5" opacity="0.58"/><ellipse cx="900" cy="665" rx="1.6" ry="4.5" fill="#c9d6ef" opacity="0.53"/><ellipse cx="1064" cy="639" rx="2.7" ry="5.5" fill="#c9d6ef" opacity="0.69"/><ellipse cx="857" cy="657" rx="1.7" ry="3.9" fill="#f4efe6" opacity="0.74"/><ellipse cx="1127" cy="620" rx="2.8" ry="3.7" fill="#c9d6ef" opacity="0.78"/><ellipse cx="1067" cy="599" rx="1.7" ry="4.8" fill="#c9d6ef" opacity="0.50"/><ellipse cx="48" cy="621" rx="2.8" ry="4.7" fill="#e9b7c8" opacity="0.84"/><ellipse cx="95" cy="600" rx="2.3" ry="4.6" fill="#f7d9b5" opacity="0.73"/><ellipse cx="146" cy="645" rx="2.9" ry="4.3" fill="#e9b7c8" opacity="0.84"/><ellipse cx="227" cy="587" rx="2.1" ry="5.9" fill="#f7d9b5" opacity="0.52"/><ellipse cx="277" cy="621" rx="2.3" ry="5.9" fill="#c9d6ef" opacity="0.50"/><ellipse cx="459" cy="620" rx="2.3" ry="5.6" fill="#c9d6ef" opacity="0.75"/><ellipse cx="709" cy="606" rx="2.3" ry="5.8" fill="#f7d9b5" opacity="0.73"/><ellipse cx="670" cy="655" rx="2.3" ry="5.2" fill="#f4efe6" opacity="0.39"/><ellipse cx="258" cy="613" rx="2.0" ry="5.9" fill="#c9d6ef" opacity="0.36"/><ellipse cx="186" cy="651" rx="1.7" ry="3.1" fill="#f4efe6" opacity="0.85"/><ellipse cx="45" cy="615" rx="1.7" ry="3.8" fill="#f4efe6" opacity="0.38"/><ellipse cx="261" cy="586" rx="1.9" ry="5.9" fill="#f4efe6" opacity="0.73"/><ellipse cx="171" cy="649" rx="1.7" ry="5.1" fill="#c9d6ef" opacity="0.40"/><ellipse cx="1107" cy="590" rx="2.6" ry="3.6" fill="#c9d6ef" opacity="0.53"/><ellipse cx="919" cy="586" rx="2.6" ry="4.0" fill="#e9b7c8" opacity="0.76"/><ellipse cx="507" cy="600" rx="1.9" ry="5.7" fill="#e9b7c8" opacity="0.48"/><ellipse cx="1011" cy="625" rx="2.4" ry="4.4" fill="#f4efe6" opacity="0.85"/><ellipse cx="183" cy="624" rx="2.3" ry="4.1" fill="#c9d6ef" opacity="0.58"/><ellipse cx="924" cy="618" rx="1.9" ry="3.9" fill="#f4efe6" opacity="0.53"/><ellipse cx="44" cy="656" rx="1.9" ry="4.8" fill="#f4efe6" opacity="0.52"/><ellipse cx="1020" cy="615" rx="2.4" ry="3.9" fill="#c9d6ef" opacity="0.79"/><ellipse cx="487" cy="648" rx="2.6" ry="4.9" fill="#f7d9b5" opacity="0.62"/><ellipse cx="639" cy="598" rx="2.6" ry="5.8" fill="#f7d9b5" opacity="0.69"/><ellipse cx="809" cy="654" rx="1.7" ry="3.6" fill="#f7d9b5" opacity="0.49"/><ellipse cx="1150" cy="593" rx="2.0" ry="4.7" fill="#e9b7c8" opacity="0.75"/><ellipse cx="562" cy="649" rx="2.0" ry="5.3" fill="#f4efe6" opacity="0.75"/><ellipse cx="1010" cy="656" rx="2.0" ry="3.5" fill="#e9b7c8" opacity="0.51"/><ellipse cx="968" cy="645" rx="2.1" ry="3.4" fill="#f7d9b5" opacity="0.85"/><ellipse cx="121" cy="584" rx="3.0" ry="3.8" fill="#f7d9b5" opacity="0.58"/><ellipse cx="71" cy="643" rx="2.2" ry="5.6" fill="#c9d6ef" opacity="0.45"/><ellipse cx="1134" cy="597" rx="2.4" ry="4.6" fill="#f7d9b5" opacity="0.49"/><ellipse cx="1152" cy="651" rx="3.0" ry="4.5" fill="#e9b7c8" opacity="0.58"/><ellipse cx="965" cy="588" rx="1.6" ry="4.8" fill="#f7d9b5" opacity="0.38"/><ellipse cx="65" cy="666" rx="2.3" ry="6.0" fill="#c9d6ef" opacity="0.52"/><ellipse cx="283" cy="644" rx="3.0" ry="5.5" fill="#f4efe6" opacity="0.41"/><ellipse cx="1055" cy="587" rx="2.9" ry="4.6" fill="#e9b7c8" opacity="0.57"/><ellipse cx="698" cy="600" rx="2.4" ry="3.6" fill="#c9d6ef" opacity="0.61"/><ellipse cx="807" cy="609" rx="1.9" ry="4.4" fill="#c9d6ef" opacity="0.72"/><ellipse cx="185" cy="627" rx="2.6" ry="3.7" fill="#e9b7c8" opacity="0.71"/><ellipse cx="988" cy="595" rx="2.0" ry="4.2" fill="#e9b7c8" opacity="0.61"/><ellipse cx="1041" cy="619" rx="1.7" ry="3.9" fill="#f7d9b5" opacity="0.67"/><ellipse cx="626" cy="633" rx="1.7" ry="4.1" fill="#f7d9b5" opacity="0.70"/><ellipse cx="710" cy="648" rx="2.6" ry="4.6" fill="#c9d6ef" opacity="0.67"/><ellipse cx="918" cy="666" rx="2.5" ry="5.1" fill="#e9b7c8" opacity="0.68"/><ellipse cx="513" cy="664" rx="2.6" ry="3.1" fill="#c9d6ef" opacity="0.49"/><ellipse cx="282" cy="632" rx="2.7" ry="3.7" fill="#c9d6ef" opacity="0.81"/><ellipse cx="200" cy="590" rx="2.2" ry="4.0" fill="#f7d9b5" opacity="0.82"/><ellipse cx="307" cy="630" rx="2.3" ry="5.8" fill="#f4efe6" opacity="0.58"/><ellipse cx="896" cy="598" rx="2.3" ry="3.5" fill="#e9b7c8" opacity="0.78"/><ellipse cx="711" cy="647" rx="3.0" ry="5.8" fill="#f4efe6" opacity="0.40"/><ellipse cx="445" cy="657" rx="2.0" ry="4.6" fill="#e9b7c8" opacity="0.80"/><ellipse cx="764" cy="656" rx="2.0" ry="4.7" fill="#f7d9b5" opacity="0.73"/><ellipse cx="965" cy="605" rx="2.5" ry="5.8" fill="#f7d9b5" opacity="0.40"/><ellipse cx="890" cy="646" rx="2.6" ry="6.0" fill="#c9d6ef" opacity="0.53"/><ellipse cx="207" cy="595" rx="1.5" ry="4.6" fill="#e9b7c8" opacity="0.74"/><ellipse cx="514" cy="600" rx="1.8" ry="5.9" fill="#c9d6ef" opacity="0.73"/><ellipse cx="610" cy="582" rx="2.0" ry="3.4" fill="#e9b7c8" opacity="0.52"/><ellipse cx="925" cy="617" rx="1.9" ry="4.9" fill="#e9b7c8" opacity="0.67"/><ellipse cx="202" cy="633" rx="2.6" ry="3.8" fill="#c9d6ef" opacity="0.67"/><ellipse cx="539" cy="599" rx="2.4" ry="5.9" fill="#e9b7c8" opacity="0.81"/><ellipse cx="993" cy="587" rx="2.5" ry="5.3" fill="#f7d9b5" opacity="0.53"/><ellipse cx="228" cy="650" rx="2.0" ry="3.5" fill="#f7d9b5" opacity="0.39"/><ellipse cx="194" cy="609" rx="3.0" ry="3.6" fill="#c9d6ef" opacity="0.78"/><ellipse cx="363" cy="650" rx="2.1" ry="3.5" fill="#c9d6ef" opacity="0.72"/><ellipse cx="569" cy="652" rx="1.6" ry="3.6" fill="#e9b7c8" opacity="0.78"/><ellipse cx="82" cy="639" rx="2.3" ry="4.4" fill="#f4efe6" opacity="0.81"/><ellipse cx="661" cy="640" rx="2.4" ry="5.3" fill="#e9b7c8" opacity="0.59"/><ellipse cx="967" cy="625" rx="2.7" ry="3.8" fill="#f7d9b5" opacity="0.73"/><ellipse cx="853" cy="659" rx="2.7" ry="3.9" fill="#f7d9b5" opacity="0.40"/><ellipse cx="996" cy="657" rx="2.5" ry="3.8" fill="#f7d9b5" opacity="0.42"/><ellipse cx="372" cy="662" rx="2.3" ry="5.3" fill="#e9b7c8" opacity="0.36"/><ellipse cx="398" cy="608" rx="1.7" ry="4.6" fill="#f7d9b5" opacity="0.47"/><ellipse cx="779" cy="611" rx="2.3" ry="4.4" fill="#f7d9b5" opacity="0.36"/><ellipse cx="442" cy="646" rx="1.6" ry="4.8" fill="#c9d6ef" opacity="0.50"/><ellipse cx="740" cy="637" rx="2.6" ry="5.2" fill="#f7d9b5" opacity="0.77"/><ellipse cx="523" cy="644" rx="1.7" ry="3.5" fill="#f7d9b5" opacity="0.54"/><ellipse cx="718" cy="656" rx="2.0" ry="3.9" fill="#c9d6ef" opacity="0.76"/><ellipse cx="949" cy="597" rx="2.8" ry="3.4" fill="#c9d6ef" opacity="0.79"/><ellipse cx="134" cy="594" rx="2.2" ry="4.8" fill="#e9b7c8" opacity="0.57"/><ellipse cx="86" cy="626" rx="2.3" ry="4.5" fill="#f7d9b5" opacity="0.61"/><ellipse cx="507" cy="605" rx="2.3" ry="4.5" fill="#f7d9b5" opacity="0.83"/><ellipse cx="838" cy="624" rx="1.5" ry="4.0" fill="#f7d9b5" opacity="0.61"/><ellipse cx="1058" cy="624" rx="2.2" ry="4.8" fill="#c9d6ef" opacity="0.64"/><ellipse cx="294" cy="619" rx="2.9" ry="5.7" fill="#c9d6ef" opacity="0.50"/><ellipse cx="173" cy="616" rx="2.1" ry="5.8" fill="#e9b7c8" opacity="0.83"/><ellipse cx="584" cy="591" rx="2.8" ry="4.1" fill="#f4efe6" opacity="0.59"/><ellipse cx="1110" cy="643" rx="2.1" ry="5.7" fill="#c9d6ef" opacity="0.85"/><ellipse cx="129" cy="613" rx="2.5" ry="5.1" fill="#f4efe6" opacity="0.53"/><ellipse cx="406" cy="600" rx="1.6" ry="5.2" fill="#c9d6ef" opacity="0.81"/><ellipse cx="337" cy="607" rx="2.1" ry="4.6" fill="#e9b7c8" opacity="0.51"/><ellipse cx="955" cy="592" rx="2.6" ry="5.9" fill="#f7d9b5" opacity="0.52"/><ellipse cx="1158" cy="584" rx="1.8" ry="4.4" fill="#f4efe6" opacity="0.58"/><ellipse cx="130" cy="638" rx="2.7" ry="3.7" fill="#c9d6ef" opacity="0.74"/><ellipse cx="1077" cy="649" rx="1.8" ry="3.4" fill="#c9d6ef" opacity="0.79"/><ellipse cx="250" cy="650" rx="1.8" ry="5.1" fill="#f4efe6" opacity="0.55"/><ellipse cx="1064" cy="601" rx="1.9" ry="3.7" fill="#f7d9b5" opacity="0.78"/><ellipse cx="480" cy="625" rx="2.9" ry="5.0" fill="#f4efe6" opacity="0.53"/><ellipse cx="1048" cy="585" rx="2.7" ry="5.1" fill="#f7d9b5" opacity="0.49"/><ellipse cx="565" cy="594" rx="2.8" ry="4.2" fill="#e9b7c8" opacity="0.57"/><ellipse cx="884" cy="602" rx="2.3" ry="3.3" fill="#f4efe6" opacity="0.39"/><ellipse cx="970" cy="640" rx="2.9" ry="4.9" fill="#f4efe6" opacity="0.53"/><ellipse cx="343" cy="626" rx="2.8" ry="4.7" fill="#c9d6ef" opacity="0.55"/><ellipse cx="713" cy="627" rx="2.0" ry="4.0" fill="#f7d9b5" opacity="0.43"/><ellipse cx="349" cy="605" rx="2.1" ry="4.8" fill="#f7d9b5" opacity="0.63"/><ellipse cx="1041" cy="662" rx="2.8" ry="4.5" fill="#f4efe6" opacity="0.61"/><ellipse cx="498" cy="656" rx="1.7" ry="4.7" fill="#e9b7c8" opacity="0.81"/><ellipse cx="782" cy="610" rx="2.6" ry="3.4" fill="#f7d9b5" opacity="0.36"/><ellipse cx="897" cy="644" rx="2.6" ry="4.2" fill="#f4efe6" opacity="0.79"/><ellipse cx="738" cy="641" rx="2.8" ry="3.0" fill="#c9d6ef" opacity="0.52"/><ellipse cx="1004" cy="632" rx="1.9" ry="4.8" fill="#e9b7c8" opacity="0.48"/><ellipse cx="474" cy="583" rx="2.2" ry="5.1" fill="#f7d9b5" opacity="0.65"/><ellipse cx="315" cy="618" rx="2.5" ry="3.3" fill="#f7d9b5" opacity="0.81"/><ellipse cx="477" cy="591" rx="2.4" ry="5.7" fill="#e9b7c8" opacity="0.71"/><ellipse cx="1141" cy="618" rx="1.7" ry="3.6" fill="#f4efe6" opacity="0.78"/><ellipse cx="52" cy="600" rx="2.9" ry="3.0" fill="#f4efe6" opacity="0.48"/><ellipse cx="1060" cy="639" rx="2.2" ry="4.2" fill="#c9d6ef" opacity="0.53"/><ellipse cx="529" cy="648" rx="2.2" ry="3.4" fill="#c9d6ef" opacity="0.39"/><ellipse cx="379" cy="618" rx="1.7" ry="3.3" fill="#f7d9b5" opacity="0.38"/><ellipse cx="967" cy="610" rx="1.9" ry="4.2" fill="#f4efe6" opacity="0.41"/><ellipse cx="587" cy="607" rx="1.7" ry="4.2" fill="#f4efe6" opacity="0.74"/><ellipse cx="1114" cy="606" rx="1.7" ry="6.0" fill="#f4efe6" opacity="0.62"/><ellipse cx="1014" cy="617" rx="2.6" ry="5.9" fill="#e9b7c8" opacity="0.43"/><ellipse cx="180" cy="654" rx="2.5" ry="5.2" fill="#f7d9b5" opacity="0.82"/><ellipse cx="539" cy="589" rx="1.6" ry="4.7" fill="#e9b7c8" opacity="0.69"/><ellipse cx="244" cy="629" rx="1.7" ry="4.0" fill="#f7d9b5" opacity="0.74"/><ellipse cx="57" cy="626" rx="2.6" ry="5.4" fill="#e9b7c8" opacity="0.64"/><ellipse cx="307" cy="654" rx="1.9" ry="4.3" fill="#e9b7c8" opacity="0.83"/><ellipse cx="686" cy="651" rx="1.9" ry="3.2" fill="#c9d6ef" opacity="0.70"/><ellipse cx="237" cy="662" rx="2.0" ry="5.4" fill="#e9b7c8" opacity="0.44"/><ellipse cx="405" cy="654" rx="1.9" ry="4.4" fill="#f7d9b5" opacity="0.38"/><ellipse cx="447" cy="588" rx="1.8" ry="3.4" fill="#c9d6ef" opacity="0.74"/><ellipse cx="590" cy="582" rx="1.9" ry="4.5" fill="#e9b7c8" opacity="0.49"/><ellipse cx="846" cy="646" rx="2.7" ry="3.9" fill="#e9b7c8" opacity="0.60"/><ellipse cx="1050" cy="592" rx="2.0" ry="5.1" fill="#c9d6ef" opacity="0.76"/><ellipse cx="1133" cy="625" rx="2.2" ry="3.2" fill="#e9b7c8" opacity="0.46"/><ellipse cx="450" cy="590" rx="2.7" ry="3.2" fill="#f7d9b5" opacity="0.37"/><ellipse cx="358" cy="635" rx="2.1" ry="3.1" fill="#c9d6ef" opacity="0.75"/><ellipse cx="701" cy="652" rx="3.0" ry="5.0" fill="#c9d6ef" opacity="0.74"/><ellipse cx="622" cy="608" rx="2.8" ry="5.0" fill="#f7d9b5" opacity="0.78"/><ellipse cx="669" cy="586" rx="2.0" ry="5.5" fill="#c9d6ef" opacity="0.69"/><ellipse cx="312" cy="660" rx="1.6" ry="3.5" fill="#f7d9b5" opacity="0.75"/><ellipse cx="64" cy="616" rx="2.2" ry="4.2" fill="#c9d6ef" opacity="0.49"/><ellipse cx="998" cy="662" rx="1.8" ry="3.3" fill="#f4efe6" opacity="0.64"/><ellipse cx="294" cy="664" rx="1.9" ry="3.1" fill="#f7d9b5" opacity="0.83"/><ellipse cx="781" cy="592" rx="2.5" ry="5.5" fill="#c9d6ef" opacity="0.57"/><ellipse cx="304" cy="627" rx="2.4" ry="4.0" fill="#f7d9b5" opacity="0.63"/><ellipse cx="124" cy="626" rx="2.6" ry="5.5" fill="#f4efe6" opacity="0.43"/><ellipse cx="842" cy="598" rx="1.7" ry="4.9" fill="#c9d6ef" opacity="0.52"/><ellipse cx="348" cy="609" rx="2.8" ry="3.5" fill="#e9b7c8" opacity="0.84"/><ellipse cx="381" cy="614" rx="2.0" ry="4.1" fill="#c9d6ef" opacity="0.74"/><ellipse cx="93" cy="644" rx="2.0" ry="5.8" fill="#e9b7c8" opacity="0.48"/><ellipse cx="1103" cy="603" rx="1.6" ry="4.8" fill="#e9b7c8" opacity="0.36"/><ellipse cx="423" cy="597" rx="2.1" ry="3.1" fill="#e9b7c8" opacity="0.72"/><ellipse cx="99" cy="583" rx="2.9" ry="4.3" fill="#e9b7c8" opacity="0.44"/><ellipse cx="453" cy="646" rx="2.6" ry="3.5" fill="#c9d6ef" opacity="0.48"/><ellipse cx="582" cy="648" rx="2.8" ry="3.6" fill="#c9d6ef" opacity="0.61"/><ellipse cx="351" cy="643" rx="2.4" ry="3.1" fill="#c9d6ef" opacity="0.72"/><ellipse cx="470" cy="585" rx="1.9" ry="4.7" fill="#e9b7c8" opacity="0.53"/><ellipse cx="241" cy="653" rx="2.5" ry="4.7" fill="#e9b7c8" opacity="0.82"/><ellipse cx="550" cy="633" rx="2.4" ry="3.3" fill="#f4efe6" opacity="0.82"/><ellipse cx="893" cy="666" rx="1.8" ry="5.3" fill="#f4efe6" opacity="0.61"/><ellipse cx="1141" cy="646" rx="2.1" ry="5.3" fill="#e9b7c8" opacity="0.83"/><ellipse cx="357" cy="628" rx="2.5" ry="4.1" fill="#c9d6ef" opacity="0.65"/><ellipse cx="890" cy="632" rx="2.3" ry="4.3" fill="#f7d9b5" opacity="0.55"/><ellipse cx="375" cy="656" rx="2.6" ry="5.1" fill="#e9b7c8" opacity="0.77"/><ellipse cx="1003" cy="659" rx="1.9" ry="3.6" fill="#f7d9b5" opacity="0.73"/><ellipse cx="438" cy="595" rx="1.8" ry="5.4" fill="#c9d6ef" opacity="0.42"/><ellipse cx="663" cy="583" rx="1.8" ry="4.1" fill="#f4efe6" opacity="0.59"/><ellipse cx="1118" cy="620" rx="1.5" ry="4.6" fill="#f7d9b5" opacity="0.40"/><ellipse cx="792" cy="647" rx="2.0" ry="3.6" fill="#c9d6ef" opacity="0.48"/><ellipse cx="99" cy="617" rx="2.0" ry="3.3" fill="#e9b7c8" opacity="0.42"/><ellipse cx="415" cy="601" rx="1.9" ry="5.4" fill="#f4efe6" opacity="0.68"/><ellipse cx="191" cy="646" rx="2.3" ry="3.8" fill="#c9d6ef" opacity="0.83"/><ellipse cx="562" cy="650" rx="1.8" ry="4.1" fill="#f4efe6" opacity="0.63"/><ellipse cx="633" cy="632" rx="1.9" ry="5.6" fill="#e9b7c8" opacity="0.63"/><ellipse cx="682" cy="639" rx="1.7" ry="3.0" fill="#e9b7c8" opacity="0.48"/><ellipse cx="419" cy="621" rx="2.8" ry="4.5" fill="#f4efe6" opacity="0.56"/><ellipse cx="1021" cy="598" rx="2.1" ry="3.5" fill="#e9b7c8" opacity="0.47"/><ellipse cx="808" cy="647" rx="2.8" ry="3.8" fill="#f4efe6" opacity="0.71"/><ellipse cx="379" cy="593" rx="2.5" ry="5.1" fill="#c9d6ef" opacity="0.60"/><ellipse cx="892" cy="612" rx="2.1" ry="3.3" fill="#f7d9b5" opacity="0.77"/><ellipse cx="128" cy="625" rx="1.9" ry="5.1" fill="#e9b7c8" opacity="0.83"/><ellipse cx="815" cy="587" rx="1.6" ry="5.1" fill="#f4efe6" opacity="0.80"/><ellipse cx="884" cy="620" rx="1.8" ry="3.2" fill="#e9b7c8" opacity="0.62"/><ellipse cx="613" cy="600" rx="2.7" ry="5.0" fill="#f7d9b5" opacity="0.39"/><ellipse cx="424" cy="607" rx="1.8" ry="3.2" fill="#f4efe6" opacity="0.58"/><ellipse cx="290" cy="626" rx="2.0" ry="3.8" fill="#f7d9b5" opacity="0.66"/><ellipse cx="986" cy="614" rx="2.2" ry="3.3" fill="#c9d6ef" opacity="0.41"/><ellipse cx="468" cy="631" rx="2.7" ry="4.5" fill="#f7d9b5" opacity="0.45"/><ellipse cx="322" cy="599" rx="2.2" ry="5.8" fill="#f4efe6" opacity="0.62"/><ellipse cx="182" cy="609" rx="2.6" ry="4.6" fill="#f7d9b5" opacity="0.68"/><ellipse cx="423" cy="633" rx="2.6" ry="3.2" fill="#c9d6ef" opacity="0.65"/><ellipse cx="434" cy="636" rx="2.3" ry="5.3" fill="#e9b7c8" opacity="0.70"/><ellipse cx="358" cy="643" rx="2.6" ry="6.0" fill="#e9b7c8" opacity="0.79"/><ellipse cx="925" cy="604" rx="1.9" ry="4.7" fill="#c9d6ef" opacity="0.42"/><ellipse cx="404" cy="628" rx="1.5" ry="3.7" fill="#e9b7c8" opacity="0.70"/><ellipse cx="400" cy="584" rx="2.4" ry="5.1" fill="#f7d9b5" opacity="0.49"/><ellipse cx="1052" cy="620" rx="3.0" ry="3.9" fill="#c9d6ef" opacity="0.68"/><ellipse cx="1142" cy="662" rx="1.6" ry="3.4" fill="#f7d9b5" opacity="0.57"/><ellipse cx="800" cy="621" rx="3.0" ry="5.5" fill="#c9d6ef" opacity="0.81"/><ellipse cx="92" cy="594" rx="2.1" ry="4.1" fill="#f7d9b5" opacity="0.51"/><ellipse cx="559" cy="664" rx="1.6" ry="4.1" fill="#f7d9b5" opacity="0.36"/><ellipse cx="157" cy="644" rx="2.5" ry="4.2" fill="#c9d6ef" opacity="0.39"/><ellipse cx="624" cy="650" rx="2.6" ry="4.0" fill="#f7d9b5" opacity="0.56"/><ellipse cx="660" cy="582" rx="2.9" ry="4.0" fill="#f4efe6" opacity="0.77"/><ellipse cx="600" cy="625" rx="3.0" ry="3.8" fill="#f4efe6" opacity="0.54"/><ellipse cx="572" cy="643" rx="2.4" ry="4.3" fill="#c9d6ef" opacity="0.47"/><ellipse cx="811" cy="596" rx="1.7" ry="5.1" fill="#e9b7c8" opacity="0.78"/><ellipse cx="496" cy="631" rx="1.6" ry="5.3" fill="#f7d9b5" opacity="0.45"/><ellipse cx="316" cy="583" rx="2.1" ry="3.5" fill="#c9d6ef" opacity="0.45"/><ellipse cx="147" cy="639" rx="2.0" ry="4.1" fill="#c9d6ef" opacity="0.72"/><ellipse cx="970" cy="619" rx="2.6" ry="5.4" fill="#f7d9b5" opacity="0.37"/><ellipse cx="984" cy="608" rx="2.6" ry="4.4" fill="#c9d6ef" opacity="0.63"/><ellipse cx="712" cy="595" rx="1.5" ry="5.1" fill="#f4efe6" opacity="0.57"/><ellipse cx="868" cy="623" rx="2.7" ry="5.8" fill="#e9b7c8" opacity="0.71"/><ellipse cx="448" cy="639" rx="2.9" ry="4.2" fill="#f4efe6" opacity="0.85"/><ellipse cx="466" cy="654" rx="2.0" ry="5.0" fill="#f4efe6" opacity="0.55"/><ellipse cx="1100" cy="590" rx="1.9" ry="4.6" fill="#c9d6ef" opacity="0.74"/><ellipse cx="43" cy="650" rx="2.4" ry="5.3" fill="#e9b7c8" opacity="0.50"/><ellipse cx="924" cy="650" rx="2.6" ry="4.5" fill="#f4efe6" opacity="0.73"/><ellipse cx="206" cy="601" rx="2.2" ry="5.9" fill="#e9b7c8" opacity="0.61"/><ellipse cx="590" cy="606" rx="1.6" ry="3.1" fill="#f7d9b5" opacity="0.73"/><ellipse cx="463" cy="641" rx="1.6" ry="3.2" fill="#f7d9b5" opacity="0.57"/><ellipse cx="962" cy="585" rx="2.3" ry="3.2" fill="#c9d6ef" opacity="0.44"/><ellipse cx="1056" cy="594" rx="2.1" ry="4.1" fill="#e9b7c8" opacity="0.54"/><ellipse cx="220" cy="660" rx="2.6" ry="3.6" fill="#f4efe6" opacity="0.56"/><ellipse cx="791" cy="613" rx="2.1" ry="3.8" fill="#c9d6ef" opacity="0.82"/><ellipse cx="967" cy="619" rx="2.1" ry="5.4" fill="#c9d6ef" opacity="0.82"/><ellipse cx="419" cy="665" rx="2.9" ry="6.0" fill="#f7d9b5" opacity="0.60"/><ellipse cx="919" cy="638" rx="1.9" ry="3.9" fill="#f4efe6" opacity="0.49"/><ellipse cx="1137" cy="652" rx="2.8" ry="4.4" fill="#f7d9b5" opacity="0.79"/><ellipse cx="796" cy="667" rx="3.0" ry="5.9" fill="#c9d6ef" opacity="0.77"/><ellipse cx="972" cy="634" rx="2.6" ry="4.5" fill="#f7d9b5" opacity="0.61"/><ellipse cx="83" cy="585" rx="2.4" ry="5.7" fill="#e9b7c8" opacity="0.82"/><ellipse cx="547" cy="644" rx="2.7" ry="4.2" fill="#f4efe6" opacity="0.56"/><ellipse cx="535" cy="604" rx="1.9" ry="4.1" fill="#f4efe6" opacity="0.49"/><ellipse cx="539" cy="622" rx="1.6" ry="4.1" fill="#c9d6ef" opacity="0.73"/><ellipse cx="263" cy="665" rx="2.4" ry="5.5" fill="#f7d9b5" opacity="0.74"/><ellipse cx="966" cy="653" rx="1.5" ry="3.0" fill="#f4efe6" opacity="0.59"/><ellipse cx="836" cy="663" rx="3.0" ry="5.8" fill="#f7d9b5" opacity="0.37"/><ellipse cx="856" cy="605" rx="2.3" ry="3.7" fill="#c9d6ef" opacity="0.58"/><ellipse cx="986" cy="616" rx="2.3" ry="5.5" fill="#c9d6ef" opacity="0.52"/><ellipse cx="68" cy="620" rx="2.2" ry="5.1" fill="#f4efe6" opacity="0.55"/><ellipse cx="41" cy="661" rx="2.4" ry="3.1" fill="#f4efe6" opacity="0.54"/><ellipse cx="160" cy="660" rx="2.4" ry="5.4" fill="#e9b7c8" opacity="0.50"/><ellipse cx="257" cy="605" rx="2.0" ry="3.8" fill="#c9d6ef" opacity="0.61"/><ellipse cx="516" cy="664" rx="2.9" ry="3.4" fill="#c9d6ef" opacity="0.78"/><ellipse cx="61" cy="639" rx="1.9" ry="3.4" fill="#f4efe6" opacity="0.68"/><ellipse cx="332" cy="665" rx="2.6" ry="6.0" fill="#f7d9b5" opacity="0.76"/><ellipse cx="722" cy="622" rx="3.0" ry="5.0" fill="#c9d6ef" opacity="0.36"/><ellipse cx="121" cy="611" rx="1.8" ry="4.4" fill="#c9d6ef" opacity="0.56"/><ellipse cx="645" cy="610" rx="2.1" ry="3.2" fill="#c9d6ef" opacity="0.81"/><ellipse cx="838" cy="583" rx="1.6" ry="5.4" fill="#e9b7c8" opacity="0.66"/><ellipse cx="1002" cy="615" rx="1.8" ry="3.5" fill="#f7d9b5" opacity="0.44"/><ellipse cx="776" cy="645" rx="2.3" ry="5.4" fill="#c9d6ef" opacity="0.44"/><ellipse cx="426" cy="651" rx="2.1" ry="3.8" fill="#e9b7c8" opacity="0.80"/><ellipse cx="352" cy="598" rx="2.7" ry="4.7" fill="#f7d9b5" opacity="0.80"/><ellipse cx="629" cy="656" rx="1.5" ry="4.4" fill="#f7d9b5" opacity="0.71"/><ellipse cx="1086" cy="660" rx="1.9" ry="4.6" fill="#f7d9b5" opacity="0.60"/><ellipse cx="1149" cy="635" rx="1.8" ry="4.5" fill="#e9b7c8" opacity="0.43"/><ellipse cx="485" cy="627" rx="2.1" ry="5.8" fill="#f4efe6" opacity="0.40"/><ellipse cx="608" cy="587" rx="1.6" ry="5.6" fill="#c9d6ef" opacity="0.38"/><ellipse cx="1084" cy="616" rx="2.0" ry="5.7" fill="#c9d6ef" opacity="0.53"/><ellipse cx="703" cy="660" rx="2.2" ry="3.9" fill="#f4efe6" opacity="0.42"/><ellipse cx="971" cy="592" rx="2.5" ry="4.9" fill="#f4efe6" opacity="0.69"/><ellipse cx="1039" cy="646" rx="2.1" ry="3.7" fill="#e9b7c8" opacity="0.62"/><ellipse cx="326" cy="633" rx="2.9" ry="3.9" fill="#e9b7c8" opacity="0.63"/><ellipse cx="1057" cy="629" rx="2.1" ry="3.5" fill="#f7d9b5" opacity="0.51"/><ellipse cx="190" cy="663" rx="1.7" ry="5.5" fill="#e9b7c8" opacity="0.52"/><ellipse cx="1045" cy="628" rx="2.8" ry="6.0" fill="#e9b7c8" opacity="0.60"/><ellipse cx="849" cy="605" rx="2.3" ry="4.8" fill="#f4efe6" opacity="0.44"/><ellipse cx="614" cy="662" rx="1.9" ry="3.6" fill="#e9b7c8" opacity="0.48"/><ellipse cx="138" cy="634" rx="2.7" ry="3.6" fill="#c9d6ef" opacity="0.58"/><ellipse cx="1117" cy="655" rx="1.7" ry="3.2" fill="#c9d6ef" opacity="0.36"/><ellipse cx="1047" cy="636" rx="2.6" ry="4.6" fill="#f4efe6" opacity="0.84"/><ellipse cx="585" cy="598" rx="2.2" ry="5.4" fill="#f4efe6" opacity="0.56"/><ellipse cx="508" cy="603" rx="2.7" ry="3.0" fill="#c9d6ef" opacity="0.60"/><ellipse cx="88" cy="586" rx="3.0" ry="4.5" fill="#f7d9b5" opacity="0.58"/><ellipse cx="481" cy="590" rx="3.0" ry="4.5" fill="#c9d6ef" opacity="0.70"/><ellipse cx="361" cy="602" rx="2.5" ry="5.4" fill="#f4efe6" opacity="0.63"/><ellipse cx="691" cy="592" rx="2.0" ry="5.6" fill="#c9d6ef" opacity="0.56"/><ellipse cx="898" cy="631" rx="2.6" ry="3.0" fill="#e9b7c8" opacity="0.51"/><ellipse cx="831" cy="628" rx="2.1" ry="4.0" fill="#c9d6ef" opacity="0.80"/><ellipse cx="337" cy="598" rx="2.4" ry="4.5" fill="#e9b7c8" opacity="0.65"/><ellipse cx="937" cy="667" rx="1.7" ry="4.1" fill="#e9b7c8" opacity="0.61"/><ellipse cx="1102" cy="616" rx="1.9" ry="4.4" fill="#e9b7c8" opacity="0.37"/><ellipse cx="967" cy="594" rx="2.7" ry="4.1" fill="#f4efe6" opacity="0.81"/><ellipse cx="898" cy="628" rx="2.6" ry="4.2" fill="#e9b7c8" opacity="0.54"/><ellipse cx="788" cy="663" rx="1.5" ry="5.6" fill="#f7d9b5" opacity="0.59"/><ellipse cx="560" cy="599" rx="1.6" ry="5.1" fill="#f4efe6" opacity="0.45"/><ellipse cx="1092" cy="590" rx="1.9" ry="3.4" fill="#f7d9b5" opacity="0.65"/><ellipse cx="988" cy="623" rx="1.5" ry="3.5" fill="#c9d6ef" opacity="0.65"/><ellipse cx="130" cy="638" rx="2.9" ry="5.6" fill="#f4efe6" opacity="0.41"/><ellipse cx="908" cy="610" rx="2.6" ry="3.2" fill="#f4efe6" opacity="0.70"/><ellipse cx="43" cy="600" rx="1.9" ry="5.8" fill="#f7d9b5" opacity="0.82"/><ellipse cx="473" cy="586" rx="1.6" ry="5.6" fill="#e9b7c8" opacity="0.47"/><ellipse cx="316" cy="650" rx="2.8" ry="5.3" fill="#e9b7c8" opacity="0.39"/><ellipse cx="541" cy="648" rx="1.7" ry="3.5" fill="#f7d9b5" opacity="0.39"/><ellipse cx="117" cy="665" rx="2.9" ry="4.7" fill="#f4efe6" opacity="0.57"/><ellipse cx="403" cy="589" rx="2.8" ry="3.9" fill="#e9b7c8" opacity="0.66"/><ellipse cx="302" cy="664" rx="2.2" ry="4.8" fill="#f4efe6" opacity="0.44"/><ellipse cx="986" cy="615" rx="2.2" ry="3.7" fill="#c9d6ef" opacity="0.62"/><ellipse cx="682" cy="589" rx="2.6" ry="3.8" fill="#c9d6ef" opacity="0.57"/><ellipse cx="715" cy="658" rx="2.7" ry="4.3" fill="#f4efe6" opacity="0.49"/><ellipse cx="255" cy="647" rx="2.4" ry="3.8" fill="#c9d6ef" opacity="0.63"/><ellipse cx="221" cy="596" rx="2.4" ry="3.7" fill="#c9d6ef" opacity="0.84"/><ellipse cx="639" cy="658" rx="2.5" ry="3.7" fill="#f4efe6" opacity="0.50"/><ellipse cx="177" cy="622" rx="1.5" ry="5.2" fill="#f7d9b5" opacity="0.85"/><ellipse cx="1027" cy="641" rx="2.4" ry="5.0" fill="#f7d9b5" opacity="0.37"/><ellipse cx="605" cy="600" rx="2.8" ry="5.2" fill="#e9b7c8" opacity="0.66"/><ellipse cx="464" cy="667" rx="2.0" ry="5.3" fill="#e9b7c8" opacity="0.41"/><ellipse cx="1085" cy="645" rx="2.6" ry="4.5" fill="#f4efe6" opacity="0.36"/><ellipse cx="1036" cy="607" rx="2.6" ry="5.6" fill="#c9d6ef" opacity="0.53"/><ellipse cx="642" cy="658" rx="2.2" ry="3.5" fill="#f7d9b5" opacity="0.43"/><ellipse cx="163" cy="612" rx="2.7" ry="3.5" fill="#f7d9b5" opacity="0.85"/><ellipse cx="556" cy="605" rx="1.6" ry="5.9" fill="#e9b7c8" opacity="0.45"/><ellipse cx="505" cy="650" rx="2.5" ry="3.5" fill="#f7d9b5" opacity="0.75"/><ellipse cx="125" cy="636" rx="2.4" ry="3.1" fill="#f4efe6" opacity="0.73"/><ellipse cx="1014" cy="613" rx="2.6" ry="4.0" fill="#e9b7c8" opacity="0.67"/><ellipse cx="263" cy="657" rx="1.8" ry="3.8" fill="#f4efe6" opacity="0.85"/><ellipse cx="612" cy="604" rx="1.7" ry="3.4" fill="#f4efe6" opacity="0.43"/><ellipse cx="44" cy="647" rx="1.8" ry="4.2" fill="#e9b7c8" opacity="0.82"/><ellipse cx="829" cy="619" rx="2.5" ry="3.3" fill="#e9b7c8" opacity="0.36"/><ellipse cx="89" cy="592" rx="2.4" ry="5.3" fill="#c9d6ef" opacity="0.54"/><ellipse cx="335" cy="606" rx="1.8" ry="5.6" fill="#f4efe6" opacity="0.38"/><ellipse cx="253" cy="629" rx="2.9" ry="5.5" fill="#e9b7c8" opacity="0.68"/><ellipse cx="420" cy="630" rx="1.9" ry="5.9" fill="#c9d6ef" opacity="0.68"/><ellipse cx="46" cy="638" rx="2.0" ry="3.3" fill="#c9d6ef" opacity="0.39"/><ellipse cx="440" cy="664" rx="2.0" ry="4.5" fill="#c9d6ef" opacity="0.48"/><ellipse cx="508" cy="618" rx="2.1" ry="5.9" fill="#e9b7c8" opacity="0.77"/><ellipse cx="1058" cy="607" rx="2.9" ry="4.4" fill="#f4efe6" opacity="0.38"/><ellipse cx="189" cy="618" rx="2.0" ry="3.5" fill="#f7d9b5" opacity="0.76"/><ellipse cx="472" cy="602" rx="2.7" ry="5.4" fill="#c9d6ef" opacity="0.57"/><ellipse cx="943" cy="615" rx="2.5" ry="4.5" fill="#f7d9b5" opacity="0.74"/><ellipse cx="195" cy="634" rx="2.5" ry="5.2" fill="#f4efe6" opacity="0.56"/><ellipse cx="1082" cy="595" rx="2.9" ry="5.7" fill="#f4efe6" opacity="0.60"/><ellipse cx="544" cy="639" rx="2.9" ry="5.9" fill="#f7d9b5" opacity="0.81"/><ellipse cx="547" cy="665" rx="2.7" ry="5.3" fill="#f4efe6" opacity="0.76"/><ellipse cx="67" cy="636" rx="1.8" ry="5.5" fill="#f4efe6" opacity="0.75"/><ellipse cx="914" cy="635" rx="2.5" ry="3.2" fill="#f7d9b5" opacity="0.59"/><ellipse cx="766" cy="630" rx="2.7" ry="5.2" fill="#f4efe6" opacity="0.62"/><ellipse cx="137" cy="594" rx="2.2" ry="4.5" fill="#c9d6ef" opacity="0.70"/>
<rect width="1200" height="675" filter="url(#grain)"/>
</svg>